<mxfile host="Electron" modified="2023-07-23T12:31:57.815Z" agent="Mozilla/5.0 (X11; Linux x86_64) AppleWebKit/537.36 (KHTML, like Gecko) draw.io/21.5.0 Chrome/112.0.5615.204 Electron/24.5.1 Safari/537.36" etag="HlC2wZLPuSsPQoW5IMJy" version="21.5.0" type="device">
  <diagram name="Page-1" id="9ScV0Ey4ZInh2hZRjOqD">
    <mxGraphModel dx="1434" dy="838" grid="1" gridSize="10" guides="1" tooltips="1" connect="1" arrows="1" fold="1" page="1" pageScale="1" pageWidth="1169" pageHeight="827" math="0" shadow="0">
      <root>
        <mxCell id="0" />
        <mxCell id="1" parent="0" />
        <mxCell id="a4h59_RL6j5VjcCf2wOR-17" value="" style="shape=step;perimeter=stepPerimeter;whiteSpace=wrap;html=1;fixedSize=1;size=10;direction=south;fillColor=#10739E;strokeColor=none;rounded=0;" parent="1" vertex="1">
          <mxGeometry x="80" y="40" width="70" height="80" as="geometry" />
        </mxCell>
        <mxCell id="a4h59_RL6j5VjcCf2wOR-18" value="" style="shape=step;perimeter=stepPerimeter;whiteSpace=wrap;html=1;fixedSize=1;size=10;direction=south;fillColor=#F2931E;strokeColor=none;rounded=0;" parent="1" vertex="1">
          <mxGeometry x="80" y="120" width="70" height="80" as="geometry" />
        </mxCell>
        <mxCell id="a4h59_RL6j5VjcCf2wOR-19" value="" style="shape=step;perimeter=stepPerimeter;whiteSpace=wrap;html=1;fixedSize=1;size=10;direction=south;fillColor=#AE4132;strokeColor=none;rounded=0;" parent="1" vertex="1">
          <mxGeometry x="80" y="200" width="70" height="80" as="geometry" />
        </mxCell>
        <mxCell id="a4h59_RL6j5VjcCf2wOR-20" value="" style="shape=step;perimeter=stepPerimeter;whiteSpace=wrap;html=1;fixedSize=1;size=10;direction=south;fillColor=#23445D;strokeColor=none;rounded=0;" parent="1" vertex="1">
          <mxGeometry x="80" y="280" width="70" height="80" as="geometry" />
        </mxCell>
        <mxCell id="a4h59_RL6j5VjcCf2wOR-22" value="&lt;font style=&quot;font-size: 10px&quot;&gt;&lt;font style=&quot;font-size: 12px&quot; color=&quot;#10739E&quot;&gt;&lt;b&gt;Processeur (ou CPU)&lt;/b&gt;&lt;/font&gt;&lt;br&gt;&lt;br&gt;&lt;font size=&quot;1&quot;&gt;Composant clé d&#39;un ordinateur (le cerveau). Le processeur s&#39;occupe de la partie exécution des programmes en mémoire vive.&lt;/font&gt;&lt;/font&gt;" style="rounded=1;strokeColor=none;fillColor=#EEEEEE;align=center;arcSize=12;verticalAlign=top;whiteSpace=wrap;html=1;fontSize=12;" parent="1" vertex="1">
          <mxGeometry x="180" y="40" width="380" height="70" as="geometry" />
        </mxCell>
        <mxCell id="a4h59_RL6j5VjcCf2wOR-23" value="&lt;font style=&quot;font-size: 10px&quot;&gt;&lt;font style=&quot;font-size: 12px&quot; color=&quot;#F2931E&quot;&gt;&lt;b&gt;Mémoire vive (ou RAM)&lt;/b&gt;&lt;/font&gt;&lt;br&gt;&lt;br&gt;&lt;font size=&quot;1&quot;&gt;Autre composant essentiel, la mémoire vive stocke les programmes en cours d&#39;exécution. Cette mémoire est dite &quot;vive&quot; car nettoyée à l&#39;extinction de la machine.&lt;/font&gt;&lt;/font&gt;" style="rounded=1;strokeColor=none;fillColor=#EEEEEE;align=center;arcSize=12;verticalAlign=top;whiteSpace=wrap;html=1;fontSize=12;" parent="1" vertex="1">
          <mxGeometry x="180" y="120" width="380" height="70" as="geometry" />
        </mxCell>
        <mxCell id="a4h59_RL6j5VjcCf2wOR-24" value="&lt;font style=&quot;font-size: 10px&quot;&gt;&lt;font style=&quot;font-size: 12px&quot; color=&quot;#AE4132&quot;&gt;&lt;b&gt;Stockage (ou HDD ou SSD)&lt;/b&gt;&lt;/font&gt;&lt;br&gt;&lt;br&gt;&lt;font size=&quot;1&quot;&gt;Sans stockage, un ordinateur ne peut persister les données. Il est donc important d&#39;ajouter un système de stockage qui garde les données après extinction.&lt;/font&gt;&lt;/font&gt;" style="rounded=1;strokeColor=none;fillColor=#EEEEEE;align=center;arcSize=12;verticalAlign=top;whiteSpace=wrap;html=1;fontSize=12;" parent="1" vertex="1">
          <mxGeometry x="180" y="200" width="380" height="70" as="geometry" />
        </mxCell>
        <mxCell id="a4h59_RL6j5VjcCf2wOR-25" value="&lt;font style=&quot;font-size: 10px&quot;&gt;&lt;font style=&quot;font-size: 12px&quot; color=&quot;#23445D&quot;&gt;&lt;b&gt;Périphériques (*)&lt;/b&gt;&lt;/font&gt;&lt;br&gt;&lt;br&gt;&lt;font size=&quot;1&quot;&gt;Caractérisent tous les composants qui permettent une utilisation de l&#39;ordinateur : ils peuvent être d&#39;entrée, comme le clavier et la souris, ou de sortie comme un écran.&lt;/font&gt;&lt;/font&gt;" style="rounded=1;strokeColor=none;fillColor=#EEEEEE;align=center;arcSize=12;verticalAlign=top;whiteSpace=wrap;html=1;fontSize=12;" parent="1" vertex="1">
          <mxGeometry x="180" y="280" width="380" height="70" as="geometry" />
        </mxCell>
        <mxCell id="a4h59_RL6j5VjcCf2wOR-37" value="&lt;p style=&quot;line-height: 40%;&quot;&gt;&lt;/p&gt;&lt;h1 style=&quot;line-height: 40%; font-size: 22px;&quot;&gt;&lt;br style=&quot;&quot;&gt;&lt;/h1&gt;&lt;h1 style=&quot;line-height: 40%;&quot;&gt;*&lt;/h1&gt;&lt;p&gt;Les périphériques sont nombreux, les principaux étant les suivants :&lt;/p&gt;&lt;p style=&quot;line-height: 40%;&quot;&gt;- Partie réseau&lt;/p&gt;&lt;p style=&quot;line-height: 40%;&quot;&gt;- Partie audio&lt;/p&gt;&lt;p style=&quot;line-height: 40%;&quot;&gt;- Partie graphique&lt;/p&gt;&lt;p style=&quot;line-height: 40%;&quot;&gt;- Connectique (USB par ex.).&lt;/p&gt;&lt;p&gt;&lt;/p&gt;" style="text;html=1;strokeColor=none;fillColor=none;spacing=5;spacingTop=-20;whiteSpace=wrap;overflow=hidden;rounded=0;" parent="1" vertex="1">
          <mxGeometry x="180" y="360" width="380" height="140" as="geometry" />
        </mxCell>
      </root>
    </mxGraphModel>
  </diagram>
</mxfile>
